<mxfile host="app.diagrams.net" agent="Mozilla/5.0 (Windows NT 10.0; Win64; x64) AppleWebKit/537.36 (KHTML, like Gecko) Chrome/140.0.0.0 Safari/537.36" version="28.2.4">
  <diagram name="Page-1" id="TAQN_iUAnHdLbRkozN8n">
    <mxGraphModel dx="1603" dy="865" grid="1" gridSize="10" guides="1" tooltips="1" connect="1" arrows="1" fold="1" page="1" pageScale="1" pageWidth="850" pageHeight="1100" math="0" shadow="0">
      <root>
        <mxCell id="0" />
        <mxCell id="1" parent="0" />
        <mxCell id="gPZ4UiRB-X9y3Ja38Orf-7" value="" style="edgeStyle=orthogonalEdgeStyle;rounded=0;orthogonalLoop=1;jettySize=auto;html=1;" edge="1" parent="1" source="gPZ4UiRB-X9y3Ja38Orf-5" target="gPZ4UiRB-X9y3Ja38Orf-6">
          <mxGeometry relative="1" as="geometry" />
        </mxCell>
        <mxCell id="gPZ4UiRB-X9y3Ja38Orf-5" value="" style="ellipse;whiteSpace=wrap;html=1;" vertex="1" parent="1">
          <mxGeometry x="370" y="80" width="120" height="80" as="geometry" />
        </mxCell>
        <mxCell id="gPZ4UiRB-X9y3Ja38Orf-11" value="" style="edgeStyle=orthogonalEdgeStyle;rounded=0;orthogonalLoop=1;jettySize=auto;html=1;" edge="1" parent="1" source="gPZ4UiRB-X9y3Ja38Orf-6" target="gPZ4UiRB-X9y3Ja38Orf-10">
          <mxGeometry relative="1" as="geometry" />
        </mxCell>
        <mxCell id="gPZ4UiRB-X9y3Ja38Orf-6" value="" style="ellipse;whiteSpace=wrap;html=1;" vertex="1" parent="1">
          <mxGeometry x="370" y="250" width="120" height="80" as="geometry" />
        </mxCell>
        <mxCell id="gPZ4UiRB-X9y3Ja38Orf-8" value="Plan" style="text;html=1;align=center;verticalAlign=middle;whiteSpace=wrap;rounded=0;" vertex="1" parent="1">
          <mxGeometry x="400" y="105" width="60" height="30" as="geometry" />
        </mxCell>
        <mxCell id="gPZ4UiRB-X9y3Ja38Orf-19" value="" style="edgeStyle=orthogonalEdgeStyle;rounded=0;orthogonalLoop=1;jettySize=auto;html=1;" edge="1" parent="1" source="gPZ4UiRB-X9y3Ja38Orf-10" target="gPZ4UiRB-X9y3Ja38Orf-18">
          <mxGeometry relative="1" as="geometry" />
        </mxCell>
        <mxCell id="gPZ4UiRB-X9y3Ja38Orf-10" value="" style="ellipse;whiteSpace=wrap;html=1;" vertex="1" parent="1">
          <mxGeometry x="370" y="410" width="120" height="80" as="geometry" />
        </mxCell>
        <mxCell id="gPZ4UiRB-X9y3Ja38Orf-13" value="Build" style="text;html=1;align=center;verticalAlign=middle;whiteSpace=wrap;rounded=0;" vertex="1" parent="1">
          <mxGeometry x="400" y="430" width="60" height="30" as="geometry" />
        </mxCell>
        <mxCell id="gPZ4UiRB-X9y3Ja38Orf-16" value="Develop" style="text;html=1;align=center;verticalAlign=middle;whiteSpace=wrap;rounded=0;" vertex="1" parent="1">
          <mxGeometry x="400" y="280" width="60" height="30" as="geometry" />
        </mxCell>
        <mxCell id="gPZ4UiRB-X9y3Ja38Orf-23" value="" style="edgeStyle=orthogonalEdgeStyle;rounded=0;orthogonalLoop=1;jettySize=auto;html=1;" edge="1" parent="1" source="gPZ4UiRB-X9y3Ja38Orf-18" target="gPZ4UiRB-X9y3Ja38Orf-22">
          <mxGeometry relative="1" as="geometry" />
        </mxCell>
        <mxCell id="gPZ4UiRB-X9y3Ja38Orf-18" value="" style="ellipse;whiteSpace=wrap;html=1;" vertex="1" parent="1">
          <mxGeometry x="370" y="570" width="120" height="80" as="geometry" />
        </mxCell>
        <mxCell id="gPZ4UiRB-X9y3Ja38Orf-20" value="Text" style="text;html=1;align=center;verticalAlign=middle;whiteSpace=wrap;rounded=0;" vertex="1" parent="1">
          <mxGeometry x="210" y="330" width="60" height="30" as="geometry" />
        </mxCell>
        <mxCell id="gPZ4UiRB-X9y3Ja38Orf-21" value="Testing" style="text;html=1;align=center;verticalAlign=middle;whiteSpace=wrap;rounded=0;" vertex="1" parent="1">
          <mxGeometry x="400" y="595" width="60" height="30" as="geometry" />
        </mxCell>
        <mxCell id="gPZ4UiRB-X9y3Ja38Orf-26" value="" style="edgeStyle=orthogonalEdgeStyle;rounded=0;orthogonalLoop=1;jettySize=auto;html=1;" edge="1" parent="1" source="gPZ4UiRB-X9y3Ja38Orf-22" target="gPZ4UiRB-X9y3Ja38Orf-25">
          <mxGeometry relative="1" as="geometry" />
        </mxCell>
        <mxCell id="gPZ4UiRB-X9y3Ja38Orf-22" value="" style="ellipse;whiteSpace=wrap;html=1;" vertex="1" parent="1">
          <mxGeometry x="370" y="730" width="120" height="80" as="geometry" />
        </mxCell>
        <mxCell id="gPZ4UiRB-X9y3Ja38Orf-24" value="Release" style="text;html=1;align=center;verticalAlign=middle;whiteSpace=wrap;rounded=0;" vertex="1" parent="1">
          <mxGeometry x="400" y="750" width="60" height="30" as="geometry" />
        </mxCell>
        <mxCell id="gPZ4UiRB-X9y3Ja38Orf-29" value="" style="edgeStyle=orthogonalEdgeStyle;rounded=0;orthogonalLoop=1;jettySize=auto;html=1;" edge="1" parent="1" source="gPZ4UiRB-X9y3Ja38Orf-25" target="gPZ4UiRB-X9y3Ja38Orf-28">
          <mxGeometry relative="1" as="geometry" />
        </mxCell>
        <mxCell id="gPZ4UiRB-X9y3Ja38Orf-25" value="" style="ellipse;whiteSpace=wrap;html=1;" vertex="1" parent="1">
          <mxGeometry x="370" y="890" width="120" height="80" as="geometry" />
        </mxCell>
        <mxCell id="gPZ4UiRB-X9y3Ja38Orf-27" value="Deployment" style="text;html=1;align=center;verticalAlign=middle;whiteSpace=wrap;rounded=0;" vertex="1" parent="1">
          <mxGeometry x="400" y="915" width="60" height="30" as="geometry" />
        </mxCell>
        <mxCell id="gPZ4UiRB-X9y3Ja38Orf-31" value="" style="edgeStyle=orthogonalEdgeStyle;rounded=0;orthogonalLoop=1;jettySize=auto;html=1;" edge="1" parent="1" source="gPZ4UiRB-X9y3Ja38Orf-28">
          <mxGeometry relative="1" as="geometry">
            <mxPoint x="430" y="1210" as="targetPoint" />
          </mxGeometry>
        </mxCell>
        <mxCell id="gPZ4UiRB-X9y3Ja38Orf-28" value="Operate" style="ellipse;whiteSpace=wrap;html=1;" vertex="1" parent="1">
          <mxGeometry x="370" y="1050" width="120" height="80" as="geometry" />
        </mxCell>
        <mxCell id="gPZ4UiRB-X9y3Ja38Orf-32" value="" style="ellipse;whiteSpace=wrap;html=1;" vertex="1" parent="1">
          <mxGeometry x="370" y="1210" width="120" height="80" as="geometry" />
        </mxCell>
        <mxCell id="gPZ4UiRB-X9y3Ja38Orf-35" value="Text" style="text;html=1;align=center;verticalAlign=middle;whiteSpace=wrap;rounded=0;" vertex="1" parent="1">
          <mxGeometry x="400" y="1235" width="60" height="30" as="geometry" />
        </mxCell>
      </root>
    </mxGraphModel>
  </diagram>
</mxfile>
